{"asset":{"version":"2.0","generator":"STRATUM representative equipment model generator"},"scene":0,"scenes":[{"name":"Representative Inverter","nodes":[0,1,2,3,4,5,6,7,8]}],"nodes":[{"name":"body","mesh":0,"translation":[0,0.425,0],"scale":[0.55,0.85,0.25]},{"name":"face","mesh":1,"translation":[0,0.44,0.145],"scale":[0.51,0.78,0.035]},{"name":"display","mesh":2,"translation":[0,0.62,0.17],"scale":[0.22,0.1,0.02]},{"name":"status","mesh":5,"translation":[0.17,0.62,0.18],"scale":[0.035,0.035,0.018]},{"name":"vent0","mesh":1,"translation":[-0.16,0.19,0.17],"scale":[0.05,0.025,0.018]},{"name":"vent1","mesh":1,"translation":[-0.08,0.19,0.17],"scale":[0.05,0.025,0.018]},{"name":"vent2","mesh":1,"translation":[0,0.19,0.17],"scale":[0.05,0.025,0.018]},{"name":"vent3","mesh":1,"translation":[0.07999999999999999,0.19,0.17],"scale":[0.05,0.025,0.018]},{"name":"vent4","mesh":1,"translation":[0.16,0.19,0.17],"scale":[0.05,0.025,0.018]}],"meshes":[{"name":"Equipment Gray Box","primitives":[{"attributes":{"POSITION":0,"NORMAL":1},"indices":2,"material":0}]},{"name":"Dark Trim Box","primitives":[{"attributes":{"POSITION":0,"NORMAL":1},"indices":2,"material":1}]},{"name":"Control Blue Box","primitives":[{"attributes":{"POSITION":0,"NORMAL":1},"indices":2,"material":2}]},{"name":"Copper Box","primitives":[{"attributes":{"POSITION":0,"NORMAL":1},"indices":2,"material":3}]},{"name":"Solar Blue Box","primitives":[{"attributes":{"POSITION":0,"NORMAL":1},"indices":2,"material":4}]},{"name":"Indicator Green Box","primitives":[{"attributes":{"POSITION":0,"NORMAL":1},"indices":2,"material":5}]}],"materials":[{"name":"Equipment Gray","pbrMetallicRoughness":{"baseColorFactor":[0.34,0.38,0.42,1],"metallicFactor":0.45,"roughnessFactor":0.52}},{"name":"Dark Trim","pbrMetallicRoughness":{"baseColorFactor":[0.06,0.08,0.1,1],"metallicFactor":0.25,"roughnessFactor":0.5}},{"name":"Control Blue","pbrMetallicRoughness":{"baseColorFactor":[0.08,0.32,0.55,1],"metallicFactor":0.2,"roughnessFactor":0.42}},{"name":"Copper","pbrMetallicRoughness":{"baseColorFactor":[0.55,0.25,0.09,1],"metallicFactor":0.65,"roughnessFactor":0.35}},{"name":"Solar Blue","pbrMetallicRoughness":{"baseColorFactor":[0.03,0.12,0.25,1],"metallicFactor":0.15,"roughnessFactor":0.28}},{"name":"Indicator Green","pbrMetallicRoughness":{"baseColorFactor":[0.05,0.65,0.3,1],"metallicFactor":0.05,"roughnessFactor":0.35},"emissiveFactor":[0,0.12,0.04]}],"buffers":[{"byteLength":648,"uri":"data:application/octet-stream;base64,"}],"bufferViews":[{"buffer":0,"byteOffset":0,"byteLength":288,"target":34962},{"buffer":0,"byteOffset":288,"byteLength":288,"target":34962},{"buffer":0,"byteOffset":576,"byteLength":72,"target":34963}],"accessors":[{"bufferView":0,"componentType":5126,"count":24,"type":"VEC3","min":[-0.5,-0.5,-0.5],"max":[0.5,0.5,0.5]},{"bufferView":1,"componentType":5126,"count":24,"type":"VEC3"},{"bufferView":2,"componentType":5123,"count":36,"type":"SCALAR","min":[0],"max":[23]}]}