{"asset":{"version":"2.0","generator":"STRATUM representative equipment model generator"},"scene":0,"scenes":[{"name":"Representative Panelboard","nodes":[0,1,2,3,4,5,6,7,8,9,10,11,12,13,14,15,16,17,18,19]}],"nodes":[{"name":"cabinet","mesh":0,"translation":[0,0.6,0],"scale":[0.65,1.2,0.22]},{"name":"door","mesh":1,"translation":[0,0.61,0.125],"scale":[0.61,1.12,0.03]},{"name":"breakerL0","mesh":1,"translation":[-0.11,0.25,0.155],"scale":[0.13,0.055,0.035]},{"name":"breakerL1","mesh":1,"translation":[-0.11,0.335,0.155],"scale":[0.13,0.055,0.035]},{"name":"breakerL2","mesh":1,"translation":[-0.11,0.42000000000000004,0.155],"scale":[0.13,0.055,0.035]},{"name":"breakerL3","mesh":1,"translation":[-0.11,0.505,0.155],"scale":[0.13,0.055,0.035]},{"name":"breakerL4","mesh":1,"translation":[-0.11,0.5900000000000001,0.155],"scale":[0.13,0.055,0.035]},{"name":"breakerL5","mesh":1,"translation":[-0.11,0.675,0.155],"scale":[0.13,0.055,0.035]},{"name":"breakerL6","mesh":1,"translation":[-0.11,0.76,0.155],"scale":[0.13,0.055,0.035]},{"name":"breakerL7","mesh":1,"translation":[-0.11,0.8450000000000001,0.155],"scale":[0.13,0.055,0.035]},{"name":"breakerR0","mesh":1,"translation":[0.11,0.25,0.155],"scale":[0.13,0.055,0.035]},{"name":"breakerR1","mesh":1,"translation":[0.11,0.335,0.155],"scale":[0.13,0.055,0.035]},{"name":"breakerR2","mesh":1,"translation":[0.11,0.42000000000000004,0.155],"scale":[0.13,0.055,0.035]},{"name":"breakerR3","mesh":1,"translation":[0.11,0.505,0.155],"scale":[0.13,0.055,0.035]},{"name":"breakerR4","mesh":1,"translation":[0.11,0.5900000000000001,0.155],"scale":[0.13,0.055,0.035]},{"name":"breakerR5","mesh":1,"translation":[0.11,0.675,0.155],"scale":[0.13,0.055,0.035]},{"name":"breakerR6","mesh":1,"translation":[0.11,0.76,0.155],"scale":[0.13,0.055,0.035]},{"name":"breakerR7","mesh":1,"translation":[0.11,0.8450000000000001,0.155],"scale":[0.13,0.055,0.035]},{"name":"handle","mesh":2,"translation":[0.24,0.64,0.16],"scale":[0.025,0.18,0.02]},{"name":"label","mesh":2,"translation":[0,1.03,0.16],"scale":[0.22,0.08,0.02]}],"meshes":[{"name":"Equipment Gray Box","primitives":[{"attributes":{"POSITION":0,"NORMAL":1},"indices":2,"material":0}]},{"name":"Dark Trim Box","primitives":[{"attributes":{"POSITION":0,"NORMAL":1},"indices":2,"material":1}]},{"name":"Control Blue Box","primitives":[{"attributes":{"POSITION":0,"NORMAL":1},"indices":2,"material":2}]},{"name":"Copper Box","primitives":[{"attributes":{"POSITION":0,"NORMAL":1},"indices":2,"material":3}]},{"name":"Solar Blue Box","primitives":[{"attributes":{"POSITION":0,"NORMAL":1},"indices":2,"material":4}]},{"name":"Indicator Green Box","primitives":[{"attributes":{"POSITION":0,"NORMAL":1},"indices":2,"material":5}]}],"materials":[{"name":"Equipment Gray","pbrMetallicRoughness":{"baseColorFactor":[0.34,0.38,0.42,1],"metallicFactor":0.45,"roughnessFactor":0.52}},{"name":"Dark Trim","pbrMetallicRoughness":{"baseColorFactor":[0.06,0.08,0.1,1],"metallicFactor":0.25,"roughnessFactor":0.5}},{"name":"Control Blue","pbrMetallicRoughness":{"baseColorFactor":[0.08,0.32,0.55,1],"metallicFactor":0.2,"roughnessFactor":0.42}},{"name":"Copper","pbrMetallicRoughness":{"baseColorFactor":[0.55,0.25,0.09,1],"metallicFactor":0.65,"roughnessFactor":0.35}},{"name":"Solar Blue","pbrMetallicRoughness":{"baseColorFactor":[0.03,0.12,0.25,1],"metallicFactor":0.15,"roughnessFactor":0.28}},{"name":"Indicator Green","pbrMetallicRoughness":{"baseColorFactor":[0.05,0.65,0.3,1],"metallicFactor":0.05,"roughnessFactor":0.35},"emissiveFactor":[0,0.12,0.04]}],"buffers":[{"byteLength":648,"uri":"data:application/octet-stream;base64,"}],"bufferViews":[{"buffer":0,"byteOffset":0,"byteLength":288,"target":34962},{"buffer":0,"byteOffset":288,"byteLength":288,"target":34962},{"buffer":0,"byteOffset":576,"byteLength":72,"target":34963}],"accessors":[{"bufferView":0,"componentType":5126,"count":24,"type":"VEC3","min":[-0.5,-0.5,-0.5],"max":[0.5,0.5,0.5]},{"bufferView":1,"componentType":5126,"count":24,"type":"VEC3"},{"bufferView":2,"componentType":5123,"count":36,"type":"SCALAR","min":[0],"max":[23]}]}